<?xml version="1.0" standalone="no"?>
<!DOCTYPE svg PUBLIC "-//W3C//DTD SVG 20010904//EN"
 "http://www.w3.org/TR/2001/REC-SVG-20010904/DTD/svg10.dtd">
<svg version="1.0" xmlns="http://www.w3.org/2000/svg"
 width="30.000000pt" height="30.000000pt" viewBox="0 0 360.000000 360.000000"
 preserveAspectRatio="xMidYMid meet">

<g transform="translate(0.000000,360.000000) scale(0.100000,-0.100000)"
fill="#FFFFFF" stroke="none">
<path d="M1687 2865 l-108 -275 107 -150 c59 -82 110 -150 114 -150 3 0 55 68
114 151 l107 150 -108 275 c-59 150 -110 274 -113 274 -3 0 -54 -124 -113
-275z"/>
<path d="M1063 2903 c3 -16 16 -100 28 -188 12 -88 27 -165 33 -172 14 -15
209 -102 217 -97 5 3 22 171 24 230 0 6 -69 67 -154 134 -139 110 -153 119
-148 93z"/>
<path d="M2385 2807 c-82 -66 -150 -125 -150 -131 2 -59 19 -227 24 -230 8 -5
203 82 217 97 9 10 68 378 61 382 -1 1 -69 -52 -152 -118z"/>
<path d="M940 2313 c-237 -272 -368 -490 -466 -777 -19 -55 -33 -100 -31 -102
1 -1 139 74 306 167 303 168 305 169 367 169 l62 0 32 -57 c31 -56 185 -223
243 -265 l27 -19 0 131 c0 96 -3 132 -12 134 -81 22 -128 39 -153 56 l-30 20
155 -2 155 -3 31 -415 31 -414 -71 -95 -70 -95 -4 -148 -4 -148 146 61 146 60
146 -60 146 -61 -4 148 -4 147 -71 95 -70 95 31 415 31 415 155 3 155 2 -30
-20 c-16 -11 -60 -30 -97 -41 l-68 -21 0 -130 0 -129 28 19 c57 42 211 209
242 265 l32 57 62 0 c62 0 64 -1 367 -169 167 -93 305 -168 306 -167 4 3 -48
155 -77 226 -36 92 -119 251 -175 335 -88 136 -306 403 -323 398 -4 -1 -14
-30 -22 -65 l-16 -63 -89 -3 c-113 -4 -203 12 -280 48 l-60 28 -157 -157 -158
-156 -157 156 -158 157 -60 -28 c-77 -36 -167 -52 -280 -48 l-89 3 -16 62 c-8
34 -17 64 -20 67 -3 3 -39 -34 -80 -81z"/>
</g>
</svg>
