<?xml version="1.0" standalone="no"?>
<!DOCTYPE svg PUBLIC "-//W3C//DTD SVG 20010904//EN"
 "http://www.w3.org/TR/2001/REC-SVG-20010904/DTD/svg10.dtd">
<svg version="1.0" xmlns="http://www.w3.org/2000/svg"
 width="162.000000pt" height="96.000000pt" viewBox="0 0 162.000000 96.000000"
 preserveAspectRatio="xMidYMid meet">
<defs>
					<linearGradient id="gradient-fill" x1="0" y1="0" x2="800" y2="0" gradientUnits="userSpaceOnUse">
						
							<stop offset="0" stop-color="#42d4ff" />
						
							<stop offset="0.16666666666666666" stop-color="#00c5ff" />
						
							<stop offset="0.3333333333333333" stop-color="#00b5ff" />
						
							<stop offset="0.5" stop-color="#00a4ff" />
						
							<stop offset="0.6666666666666666" stop-color="#0091ff" />
						
							<stop offset="0.8333333333333333" stop-color="#007cff" />
						
							<stop offset="1" stop-color="#0763ff" />
						
					</linearGradient>
				</defs>
<g transform="translate(0.000000,96.000000) scale(0.100000,-0.100000)"
 fill="url(#gradient-fill)" stroke="none">
<path d="M253 764 c-56 -21 -99 -66 -113 -121 -14 -56 -6 -98 28 -143 39 -52
59 -66 152 -105 115 -49 130 -60 130 -94 0 -43 -21 -54 -94 -49 -50 3 -71 10
-100 31 -33 26 -38 27 -57 14 -20 -15 -20 -15 13 -41 43 -32 110 -56 157 -56
56 1 119 33 127 67 18 69 -6 105 -94 144 -143 64 -174 82 -199 121 -33 49 -28
107 13 149 45 47 76 51 364 47 256 -3 267 -4 314 -27 99 -49 149 -123 171
-255 15 -95 30 -128 77 -172 51 -49 94 -66 163 -66 64 0 119 20 163 62 27 25
27 29 5 45 -15 11 -22 9 -50 -15 -37 -33 -84 -45 -149 -37 -85 9 -154 91 -154
182 0 156 188 241 309 139 28 -23 29 -23 45 -5 16 18 15 20 -19 48 -97 80
-252 65 -332 -32 -31 -37 -31 -37 -43 -15 -9 18 -9 28 0 45 20 38 94 84 160
101 93 24 166 7 253 -60 42 -32 77 -39 77 -15 0 15 -65 70 -115 96 -38 20 -69
27 -130 31 -98 5 -170 -19 -238 -78 -25 -22 -48 -40 -52 -40 -3 0 -17 13 -31
29 -14 17 -51 43 -82 58 l-57 28 -285 2 c-234 2 -293 -1 -327 -13z"/>
<path d="M295 673 c-35 -9 -55 -34 -55 -71 0 -49 46 -89 151 -131 58 -24 97
-47 127 -76 37 -38 42 -47 42 -89 0 -57 -20 -89 -75 -122 -88 -51 -208 -38
-300 31 -39 30 -49 34 -67 24 -21 -11 -21 -12 18 -49 57 -53 136 -80 233 -80
67 0 87 4 138 30 l60 30 48 -27 c39 -21 65 -28 131 -31 49 -3 96 0 118 8 32
10 40 10 55 -4 18 -16 66 -23 59 -8 -1 4 -25 49 -52 99 -45 85 -51 91 -70 81
-89 -48 -202 -15 -246 72 -23 46 -26 119 -6 158 16 31 61 74 93 91 32 16 120
13 160 -6 79 -37 121 -144 89 -227 l-17 -43 63 -116 c53 -99 66 -116 85 -115
28 3 28 0 3 48 -27 54 -25 57 15 26 68 -52 123 -70 210 -70 60 0 92 6 129 22
57 26 136 87 136 107 0 28 -32 25 -68 -6 -58 -52 -117 -73 -197 -73 -86 0
-145 24 -205 84 -50 50 -73 101 -90 195 -32 181 -155 268 -315 224 -58 -16
-130 -92 -146 -152 -6 -26 -13 -47 -15 -47 -2 0 -14 5 -28 12 -21 9 -24 16
-20 37 11 43 56 121 87 147 l29 24 -144 -1 c-79 -1 -152 -4 -163 -6z m165 -85
c-11 -24 -20 -51 -20 -60 0 -10 -6 -18 -14 -18 -21 0 -109 49 -129 72 -30 36
-7 48 94 48 l88 0 -19 -42z m191 -340 c26 -20 44 -23 121 -24 76 0 92 -3 100
-18 16 -28 -5 -40 -80 -44 -118 -7 -201 29 -188 81 8 33 9 33 47 5z"/>
</g>

<style>
g{
    background: radial-gradient(circle at 10% 20%, rgb(55, 209, 255) 0%, rgb(14, 31, 111) 100.2%);
}
</style>
</svg>

